<svg width="20" height="20" viewBox="0 0 20 20" fill="none" xmlns="http://www.w3.org/2000/svg">
<path d="M7.64174 5.83329C7.48653 5.98943 7.39941 6.20064 7.39941 6.42079C7.39941 6.64095 7.48653 6.85216 7.64174 7.0083L10.5917 9.99996L7.64174 12.95C7.48653 13.1061 7.39941 13.3173 7.39941 13.5375C7.39941 13.7576 7.48653 13.9688 7.64174 14.125C7.71921 14.2031 7.81138 14.2651 7.91293 14.3074C8.01448 14.3497 8.1234 14.3715 8.23341 14.3715C8.34342 14.3715 8.45234 14.3497 8.55389 14.3074C8.65544 14.2651 8.74761 14.2031 8.82507 14.125L12.3584 10.5916C12.4365 10.5142 12.4985 10.422 12.5408 10.3204C12.5831 10.2189 12.6049 10.11 12.6049 9.99996C12.6049 9.88995 12.5831 9.78103 12.5408 9.67948C12.4985 9.57793 12.4365 9.48576 12.3584 9.4083L8.82507 5.83329C8.74761 5.75519 8.65544 5.69319 8.55389 5.65089C8.45234 5.60858 8.34342 5.5868 8.23341 5.5868C8.1234 5.5868 8.01448 5.60858 7.91293 5.65089C7.81138 5.69319 7.71921 5.75519 7.64174 5.83329Z" fill="#71839B"/>
</svg>
