<svg width="52" height="52" viewBox="0 0 52 52" fill="none" xmlns="http://www.w3.org/2000/svg">
<g filter="url(#filter0_d_592_152)">
<rect x="8" y="6" width="36" height="36" rx="8" fill="#82D616" shape-rendering="crispEdges"/>
<mask id="mask0_592_152" style="mask-type:alpha" maskUnits="userSpaceOnUse" x="16" y="14" width="20" height="20">
<rect x="16" y="14" width="20" height="20" fill="#D9D9D9"/>
</mask>
<g mask="url(#mask0_592_152)">
<path d="M23.3 19.5H29.6C29.855 19.5 30.0688 19.5863 30.2413 19.7587C30.4138 19.9313 30.5 20.145 30.5 20.4C30.5 20.655 30.4138 20.8688 30.2413 21.0413C30.0688 21.2138 29.855 21.3 29.6 21.3H23.3C23.045 21.3 22.8313 21.2138 22.6588 21.0413C22.4863 20.8688 22.4 20.655 22.4 20.4C22.4 20.145 22.4863 19.9313 22.6588 19.7587C22.8313 19.5863 23.045 19.5 23.3 19.5ZM23.3 22.2H29.6C29.855 22.2 30.0688 22.2863 30.2413 22.4588C30.4138 22.6313 30.5 22.845 30.5 23.1C30.5 23.355 30.4138 23.5688 30.2413 23.7413C30.0688 23.9138 29.855 24 29.6 24H23.3C23.045 24 22.8313 23.9138 22.6588 23.7413C22.4863 23.5688 22.4 23.355 22.4 23.1C22.4 22.845 22.4863 22.6313 22.6588 22.4588C22.8313 22.2863 23.045 22.2 23.3 22.2ZM19.7 33C18.95 33 18.3125 32.7375 17.7875 32.2125C17.2625 31.6875 17 31.05 17 30.3V28.5C17 28.245 17.0863 28.0313 17.2588 27.8588C17.4313 27.6863 17.645 27.6 17.9 27.6H19.7V16.8C19.7 16.305 19.8763 15.8813 20.2288 15.5288C20.5813 15.1762 21.005 15 21.5 15H31.4C31.895 15 32.3188 15.1762 32.6713 15.5288C33.0238 15.8813 33.2 16.305 33.2 16.8V22.2C33.2 22.455 33.1138 22.6688 32.9413 22.8413C32.7688 23.0138 32.555 23.1 32.3 23.1C32.045 23.1 31.8313 23.0138 31.6588 22.8413C31.4863 22.6688 31.4 22.455 31.4 22.2V16.8H21.5V27.6H24.2C24.455 27.6 24.6688 27.6863 24.8413 27.8588C25.0138 28.0313 25.1 28.245 25.1 28.5C25.1 28.755 25.0138 28.9688 24.8413 29.1413C24.6688 29.3138 24.455 29.4 24.2 29.4H18.8V30.3C18.8 30.555 18.8863 30.7688 19.0588 30.9413C19.2313 31.1138 19.445 31.2 19.7 31.2H24.2C24.455 31.2 24.6688 31.2863 24.8413 31.4587C25.0138 31.6313 25.1 31.845 25.1 32.1C25.1 32.355 25.0138 32.5688 24.8413 32.7413C24.6688 32.9138 24.455 33 24.2 33H19.7ZM26.9 32.1V30.615C26.9 30.495 26.9225 30.3788 26.9675 30.2663C27.0125 30.1538 27.08 30.0525 27.17 29.9625L31.8725 25.2825C32.0075 25.1475 32.1575 25.05 32.3225 24.99C32.4875 24.93 32.6525 24.9 32.8175 24.9C32.9975 24.9 33.17 24.9338 33.335 25.0013C33.5 25.0688 33.65 25.17 33.785 25.305L34.6175 26.1375C34.7375 26.2725 34.8313 26.4225 34.8988 26.5875C34.9663 26.7525 35 26.9175 35 27.0825C35 27.2475 34.97 27.4163 34.91 27.5888C34.85 27.7613 34.7525 27.915 34.6175 28.05L29.9375 32.73C29.8475 32.82 29.7463 32.8875 29.6338 32.9325C29.5213 32.9775 29.405 33 29.285 33H27.8C27.545 33 27.3313 32.9138 27.1588 32.7413C26.9862 32.5688 26.9 32.355 26.9 32.1ZM28.25 31.65H29.105L31.8275 28.905L31.4225 28.4775L30.995 28.0725L28.25 30.795V31.65ZM31.4225 28.4775L30.995 28.0725L31.8275 28.905L31.4225 28.4775Z" fill="white"/>
</g>
</g>
<defs>
<filter id="filter0_d_592_152" x="0" y="0" width="52" height="52" filterUnits="userSpaceOnUse" color-interpolation-filters="sRGB">
<feFlood flood-opacity="0" result="BackgroundImageFix"/>
<feColorMatrix in="SourceAlpha" type="matrix" values="0 0 0 0 0 0 0 0 0 0 0 0 0 0 0 0 0 0 127 0" result="hardAlpha"/>
<feOffset dy="2"/>
<feGaussianBlur stdDeviation="4"/>
<feComposite in2="hardAlpha" operator="out"/>
<feColorMatrix type="matrix" values="0 0 0 0 0 0 0 0 0 0 0 0 0 0 0 0 0 0 0.08 0"/>
<feBlend mode="normal" in2="BackgroundImageFix" result="effect1_dropShadow_592_152"/>
<feBlend mode="normal" in="SourceGraphic" in2="effect1_dropShadow_592_152" result="shape"/>
</filter>
</defs>
</svg>
