<svg width="52" height="52" viewBox="0 0 52 52" fill="none" xmlns="http://www.w3.org/2000/svg">
<g filter="url(#filter0_d_592_1766)">
<rect x="8" y="6" width="36" height="36" rx="8" fill="#82D616" shape-rendering="crispEdges"/>
<mask id="mask0_592_1766" style="mask-type:alpha" maskUnits="userSpaceOnUse" x="16" y="14" width="20" height="20">
<rect x="16" y="14" width="20" height="20" fill="#D9D9D9"/>
</mask>
<g mask="url(#mask0_592_1766)">
<mask id="mask1_592_1766" style="mask-type:alpha" maskUnits="userSpaceOnUse" x="16" y="14" width="20" height="20">
<rect x="16" y="14" width="20" height="20" fill="#D9D9D9"/>
</mask>
<g mask="url(#mask1_592_1766)">
<path d="M16 29V27.6875C16 27.0903 16.3056 26.6042 16.9167 26.2292C17.5278 25.8542 18.3333 25.6667 19.3333 25.6667C19.5139 25.6667 19.6875 25.6701 19.8542 25.6771C20.0208 25.684 20.1806 25.7014 20.3333 25.7292C20.1389 26.0208 19.9931 26.3264 19.8958 26.6458C19.7986 26.9653 19.75 27.2986 19.75 27.6458V29H16ZM21 29V27.6458C21 27.2014 21.1215 26.7951 21.3646 26.4271C21.6076 26.059 21.9514 25.7361 22.3958 25.4583C22.8403 25.1806 23.3715 24.9722 23.9896 24.8333C24.6076 24.6944 25.2778 24.625 26 24.625C26.7361 24.625 27.4132 24.6944 28.0312 24.8333C28.6493 24.9722 29.1806 25.1806 29.625 25.4583C30.0694 25.7361 30.4097 26.059 30.6458 26.4271C30.8819 26.7951 31 27.2014 31 27.6458V29H21ZM32.25 29V27.6458C32.25 27.2847 32.2049 26.9444 32.1146 26.625C32.0243 26.3056 31.8889 26.0069 31.7083 25.7292C31.8611 25.7014 32.0174 25.684 32.1771 25.6771C32.3368 25.6701 32.5 25.6667 32.6667 25.6667C33.6667 25.6667 34.4722 25.8507 35.0833 26.2188C35.6944 26.5868 36 27.0764 36 27.6875V29H32.25ZM22.7708 27.3333H29.25C29.1111 27.0556 28.7257 26.8125 28.0938 26.6042C27.4618 26.3958 26.7639 26.2917 26 26.2917C25.2361 26.2917 24.5382 26.3958 23.9062 26.6042C23.2743 26.8125 22.8958 27.0556 22.7708 27.3333ZM19.3333 24.8333C18.875 24.8333 18.4826 24.6701 18.1562 24.3438C17.8299 24.0174 17.6667 23.625 17.6667 23.1667C17.6667 22.6944 17.8299 22.2986 18.1562 21.9792C18.4826 21.6597 18.875 21.5 19.3333 21.5C19.8056 21.5 20.2014 21.6597 20.5208 21.9792C20.8403 22.2986 21 22.6944 21 23.1667C21 23.625 20.8403 24.0174 20.5208 24.3438C20.2014 24.6701 19.8056 24.8333 19.3333 24.8333ZM32.6667 24.8333C32.2083 24.8333 31.816 24.6701 31.4896 24.3438C31.1632 24.0174 31 23.625 31 23.1667C31 22.6944 31.1632 22.2986 31.4896 21.9792C31.816 21.6597 32.2083 21.5 32.6667 21.5C33.1389 21.5 33.5347 21.6597 33.8542 21.9792C34.1736 22.2986 34.3333 22.6944 34.3333 23.1667C34.3333 23.625 34.1736 24.0174 33.8542 24.3438C33.5347 24.6701 33.1389 24.8333 32.6667 24.8333ZM26 24C25.3056 24 24.7153 23.7569 24.2292 23.2708C23.7431 22.7847 23.5 22.1944 23.5 21.5C23.5 20.7917 23.7431 20.1979 24.2292 19.7188C24.7153 19.2396 25.3056 19 26 19C26.7083 19 27.3021 19.2396 27.7812 19.7188C28.2604 20.1979 28.5 20.7917 28.5 21.5C28.5 22.1944 28.2604 22.7847 27.7812 23.2708C27.3021 23.7569 26.7083 24 26 24ZM26 22.3333C26.2361 22.3333 26.434 22.2535 26.5938 22.0938C26.7535 21.934 26.8333 21.7361 26.8333 21.5C26.8333 21.2639 26.7535 21.066 26.5938 20.9063C26.434 20.7465 26.2361 20.6667 26 20.6667C25.7639 20.6667 25.566 20.7465 25.4062 20.9063C25.2465 21.066 25.1667 21.2639 25.1667 21.5C25.1667 21.7361 25.2465 21.934 25.4062 22.0938C25.566 22.2535 25.7639 22.3333 26 22.3333Z" fill="white"/>
</g>
</g>
</g>
<defs>
<filter id="filter0_d_592_1766" x="0" y="0" width="52" height="52" filterUnits="userSpaceOnUse" color-interpolation-filters="sRGB">
<feFlood flood-opacity="0" result="BackgroundImageFix"/>
<feColorMatrix in="SourceAlpha" type="matrix" values="0 0 0 0 0 0 0 0 0 0 0 0 0 0 0 0 0 0 127 0" result="hardAlpha"/>
<feOffset dy="2"/>
<feGaussianBlur stdDeviation="4"/>
<feComposite in2="hardAlpha" operator="out"/>
<feColorMatrix type="matrix" values="0 0 0 0 0 0 0 0 0 0 0 0 0 0 0 0 0 0 0.08 0"/>
<feBlend mode="normal" in2="BackgroundImageFix" result="effect1_dropShadow_592_1766"/>
<feBlend mode="normal" in="SourceGraphic" in2="effect1_dropShadow_592_1766" result="shape"/>
</filter>
</defs>
</svg>
