<svg width="52" height="52" viewBox="0 0 52 52" fill="none" xmlns="http://www.w3.org/2000/svg">
<g filter="url(#filter0_d_592_921)">
<rect x="8" y="6" width="36" height="36" rx="8" fill="#E9ECEF" shape-rendering="crispEdges"/>
<mask id="mask0_592_921" style="mask-type:alpha" maskUnits="userSpaceOnUse" x="16" y="14" width="20" height="20">
<rect x="16" y="14" width="20" height="20" fill="#D9D9D9"/>
</mask>
<g mask="url(#mask0_592_921)">
<mask id="mask1_592_921" style="mask-type:alpha" maskUnits="userSpaceOnUse" x="16" y="14" width="20" height="20">
<rect x="16" y="14" width="20" height="20" fill="#D9D9D9"/>
</mask>
<g mask="url(#mask1_592_921)">
<mask id="mask2_592_921" style="mask-type:alpha" maskUnits="userSpaceOnUse" x="14" y="12" width="24" height="24">
<rect x="14" y="12" width="24" height="24" fill="#D9D9D9"/>
</mask>
<g mask="url(#mask2_592_921)">
<path d="M17 33C16.7167 33 16.4792 32.9042 16.2875 32.7125C16.0958 32.5208 16 32.2833 16 32C16 31.7167 16.0958 31.4792 16.2875 31.2875C16.4792 31.0958 16.7167 31 17 31H35C35.2833 31 35.5208 31.0958 35.7125 31.2875C35.9042 31.4792 36 31.7167 36 32C36 32.2833 35.9042 32.5208 35.7125 32.7125C35.5208 32.9042 35.2833 33 35 33H17ZM18.5 30C18.0833 30 17.7292 29.8542 17.4375 29.5625C17.1458 29.2708 17 28.9167 17 28.5V24.5C17 24.0833 17.1458 23.7292 17.4375 23.4375C17.7292 23.1458 18.0833 23 18.5 23C18.9167 23 19.2708 23.1458 19.5625 23.4375C19.8542 23.7292 20 24.0833 20 24.5V28.5C20 28.9167 19.8542 29.2708 19.5625 29.5625C19.2708 29.8542 18.9167 30 18.5 30ZM23.5 30C23.0833 30 22.7292 29.8542 22.4375 29.5625C22.1458 29.2708 22 28.9167 22 28.5V19.5C22 19.0833 22.1458 18.7292 22.4375 18.4375C22.7292 18.1458 23.0833 18 23.5 18C23.9167 18 24.2708 18.1458 24.5625 18.4375C24.8542 18.7292 25 19.0833 25 19.5V28.5C25 28.9167 24.8542 29.2708 24.5625 29.5625C24.2708 29.8542 23.9167 30 23.5 30ZM28.5 30C28.0833 30 27.7292 29.8542 27.4375 29.5625C27.1458 29.2708 27 28.9167 27 28.5V22.5C27 22.0833 27.1458 21.7292 27.4375 21.4375C27.7292 21.1458 28.0833 21 28.5 21C28.9167 21 29.2708 21.1458 29.5625 21.4375C29.8542 21.7292 30 22.0833 30 22.5V28.5C30 28.9167 29.8542 29.2708 29.5625 29.5625C29.2708 29.8542 28.9167 30 28.5 30ZM33.5 30C33.0833 30 32.7292 29.8542 32.4375 29.5625C32.1458 29.2708 32 28.9167 32 28.5V16.5C32 16.0833 32.1458 15.7292 32.4375 15.4375C32.7292 15.1458 33.0833 15 33.5 15C33.9167 15 34.2708 15.1458 34.5625 15.4375C34.8542 15.7292 35 16.0833 35 16.5V28.5C35 28.9167 34.8542 29.2708 34.5625 29.5625C34.2708 29.8542 33.9167 30 33.5 30Z" fill="#344767"/>
</g>
</g>
</g>
</g>
<defs>
<filter id="filter0_d_592_921" x="0" y="0" width="52" height="52" filterUnits="userSpaceOnUse" color-interpolation-filters="sRGB">
<feFlood flood-opacity="0" result="BackgroundImageFix"/>
<feColorMatrix in="SourceAlpha" type="matrix" values="0 0 0 0 0 0 0 0 0 0 0 0 0 0 0 0 0 0 127 0" result="hardAlpha"/>
<feOffset dy="2"/>
<feGaussianBlur stdDeviation="4"/>
<feComposite in2="hardAlpha" operator="out"/>
<feColorMatrix type="matrix" values="0 0 0 0 0 0 0 0 0 0 0 0 0 0 0 0 0 0 0.08 0"/>
<feBlend mode="normal" in2="BackgroundImageFix" result="effect1_dropShadow_592_921"/>
<feBlend mode="normal" in="SourceGraphic" in2="effect1_dropShadow_592_921" result="shape"/>
</filter>
</defs>
</svg>
