<svg width="52" height="52" viewBox="0 0 52 52" fill="none" xmlns="http://www.w3.org/2000/svg">
<g filter="url(#filter0_d_592_1427)">
<rect x="8" y="6" width="36" height="36" rx="8" fill="#82D616" shape-rendering="crispEdges"/>
<mask id="mask0_592_1427" style="mask-type:alpha" maskUnits="userSpaceOnUse" x="16" y="14" width="20" height="20">
<rect x="16" y="14" width="20" height="20" fill="#D9D9D9"/>
</mask>
<g mask="url(#mask0_592_1427)">
<path d="M24.345 34C23.895 34 23.5075 33.85 23.1825 33.55C22.8575 33.25 22.6617 32.8833 22.595 32.45L22.37 30.8C22.1533 30.7167 21.9492 30.6167 21.7575 30.5C21.5658 30.3833 21.3783 30.2583 21.195 30.125L19.645 30.775C19.2283 30.9583 18.8117 30.975 18.395 30.825C17.9783 30.675 17.6533 30.4083 17.42 30.025L16.245 27.975C16.0117 27.5917 15.945 27.1833 16.045 26.75C16.145 26.3167 16.37 25.9583 16.72 25.675L18.045 24.675C18.0283 24.5583 18.02 24.4458 18.02 24.3375V23.6625C18.02 23.5542 18.0283 23.4417 18.045 23.325L16.72 22.325C16.37 22.0417 16.145 21.6833 16.045 21.25C15.945 20.8167 16.0117 20.4083 16.245 20.025L17.42 17.975C17.6533 17.5917 17.9783 17.325 18.395 17.175C18.8117 17.025 19.2283 17.0417 19.645 17.225L21.195 17.875C21.3783 17.7417 21.57 17.6167 21.77 17.5C21.97 17.3833 22.17 17.2833 22.37 17.2L22.595 15.55C22.6617 15.1167 22.8575 14.75 23.1825 14.45C23.5075 14.15 23.895 14 24.345 14H26.695C27.145 14 27.5325 14.15 27.8575 14.45C28.1825 14.75 28.3783 15.1167 28.445 15.55L28.67 17.2C28.8867 17.2833 29.0908 17.3833 29.2825 17.5C29.4742 17.6167 29.6617 17.7417 29.845 17.875L31.395 17.225C31.8117 17.0417 32.2283 17.025 32.645 17.175C33.0617 17.325 33.3867 17.5917 33.62 17.975L34.795 20.025C35.0283 20.4083 35.095 20.8167 34.995 21.25C34.895 21.6833 34.67 22.0417 34.32 22.325L32.995 23.325C33.0117 23.4417 33.02 23.5542 33.02 23.6625V24.3375C33.02 24.4458 33.0033 24.5583 32.97 24.675L34.295 25.675C34.645 25.9583 34.87 26.3167 34.97 26.75C35.07 27.1833 35.0033 27.5917 34.77 27.975L33.57 30.025C33.3367 30.4083 33.0117 30.675 32.595 30.825C32.1783 30.975 31.7617 30.9583 31.345 30.775L29.845 30.125C29.6617 30.2583 29.47 30.3833 29.27 30.5C29.07 30.6167 28.87 30.7167 28.67 30.8L28.445 32.45C28.3783 32.8833 28.1825 33.25 27.8575 33.55C27.5325 33.85 27.145 34 26.695 34H24.345ZM24.52 32H26.495L26.845 29.35C27.3617 29.2167 27.8408 29.0208 28.2825 28.7625C28.7242 28.5042 29.1283 28.1917 29.495 27.825L31.97 28.85L32.945 27.15L30.795 25.525C30.8783 25.2917 30.9367 25.0458 30.97 24.7875C31.0033 24.5292 31.02 24.2667 31.02 24C31.02 23.7333 31.0033 23.4708 30.97 23.2125C30.9367 22.9542 30.8783 22.7083 30.795 22.475L32.945 20.85L31.97 19.15L29.495 20.2C29.1283 19.8167 28.7242 19.4958 28.2825 19.2375C27.8408 18.9792 27.3617 18.7833 26.845 18.65L26.52 16H24.545L24.195 18.65C23.6783 18.7833 23.1992 18.9792 22.7575 19.2375C22.3158 19.4958 21.9117 19.8083 21.545 20.175L19.07 19.15L18.095 20.85L20.245 22.45C20.1617 22.7 20.1033 22.95 20.07 23.2C20.0367 23.45 20.02 23.7167 20.02 24C20.02 24.2667 20.0367 24.525 20.07 24.775C20.1033 25.025 20.1617 25.275 20.245 25.525L18.095 27.15L19.07 28.85L21.545 27.8C21.9117 28.1833 22.3158 28.5042 22.7575 28.7625C23.1992 29.0208 23.6783 29.2167 24.195 29.35L24.52 32ZM25.57 27.5C26.5367 27.5 27.3617 27.1583 28.045 26.475C28.7283 25.7917 29.07 24.9667 29.07 24C29.07 23.0333 28.7283 22.2083 28.045 21.525C27.3617 20.8417 26.5367 20.5 25.57 20.5C24.5867 20.5 23.7575 20.8417 23.0825 21.525C22.4075 22.2083 22.07 23.0333 22.07 24C22.07 24.9667 22.4075 25.7917 23.0825 26.475C23.7575 27.1583 24.5867 27.5 25.57 27.5Z" fill="white"/>
</g>
</g>
<defs>
<filter id="filter0_d_592_1427" x="0" y="0" width="52" height="52" filterUnits="userSpaceOnUse" color-interpolation-filters="sRGB">
<feFlood flood-opacity="0" result="BackgroundImageFix"/>
<feColorMatrix in="SourceAlpha" type="matrix" values="0 0 0 0 0 0 0 0 0 0 0 0 0 0 0 0 0 0 127 0" result="hardAlpha"/>
<feOffset dy="2"/>
<feGaussianBlur stdDeviation="4"/>
<feComposite in2="hardAlpha" operator="out"/>
<feColorMatrix type="matrix" values="0 0 0 0 0 0 0 0 0 0 0 0 0 0 0 0 0 0 0.08 0"/>
<feBlend mode="normal" in2="BackgroundImageFix" result="effect1_dropShadow_592_1427"/>
<feBlend mode="normal" in="SourceGraphic" in2="effect1_dropShadow_592_1427" result="shape"/>
</filter>
</defs>
</svg>
